<svg xmlns="http://www.w3.org/2000/svg" version="1.1" xmlns:xlink="http://www.w3.org/1999/xlink" width="200" height="200"><svg xmlns="http://www.w3.org/2000/svg" version="1.1" xmlns:xlink="http://www.w3.org/1999/xlink" viewBox="0 0 200 200"><rect width="200" height="200" fill="url('#gradient')"></rect><defs><linearGradient id="SvgjsLinearGradient1006" gradientTransform="rotate(65 0.5 0.5)"><stop offset="0%" stop-color="#2f37a9"></stop><stop offset="100%" stop-color="#bfbfbf"></stop></linearGradient></defs><g><g fill="#ffffff" transform="matrix(4.2139917695473255,0,0,4.2139917695473255,40.476388543231,129.54180025760039)" stroke="#0e5278" stroke-width="0.2"><path d="M1.07-14.22L5.58-14.22L8.75-4.33L11.91-14.22L16.43-14.22L16.43 0L12.99 0L12.99-3.32L13.32-10.12L9.88 0L7.62 0L4.17-10.13L4.50-3.32L4.50 0L1.07 0L1.07-14.22ZM23.98-2.97L23.98-2.97Q23.98-3.39 23.54-3.64Q23.11-3.90 21.88-4.17Q20.64-4.44 19.84-4.89Q19.04-5.33 18.62-5.97Q18.20-6.60 18.20-7.42L18.20-7.42Q18.20-8.88 19.40-9.82Q20.61-10.76 22.55-10.76L22.55-10.76Q24.64-10.76 25.91-9.81Q27.18-8.87 27.18-7.32L27.18-7.32L23.88-7.32Q23.88-8.59 22.54-8.59L22.54-8.59Q22.02-8.59 21.67-8.31Q21.32-8.02 21.32-7.59L21.32-7.59Q21.32-7.15 21.75-6.88Q22.18-6.60 23.12-6.43Q24.06-6.25 24.78-6.01L24.78-6.01Q27.16-5.19 27.16-3.07L27.16-3.07Q27.16-1.62 25.87-0.71Q24.59 0.20 22.55 0.20L22.55 0.20Q21.19 0.20 20.13-0.29Q19.06-0.78 18.47-1.62Q17.87-2.46 17.87-3.39L17.87-3.39L20.95-3.39Q20.97-2.66 21.44-2.32Q21.90-1.98 22.64-1.98L22.64-1.98Q23.31-1.98 23.65-2.26Q23.98-2.53 23.98-2.97Z"></path></g></g></svg><style>@media (prefers-color-scheme: light) { :root { filter: none; } }
@media (prefers-color-scheme: dark) { :root { filter: none; } }
</style></svg>