<?xml version="1.0" encoding="UTF-8" standalone="no" ?>
<!DOCTYPE svg PUBLIC "-//W3C//DTD SVG 1.1//EN" "http://www.w3.org/Graphics/SVG/1.1/DTD/svg11.dtd">
<svg xmlns="http://www.w3.org/2000/svg" xmlns:xlink="http://www.w3.org/1999/xlink" version="1.1" width="1280" height="1024" viewBox="0 0 1280 1024" xml:space="preserve">
<desc>Created with Fabric.js 5.3.0</desc>
<defs>
</defs>
<g transform="matrix(1 0 0 1 640 512)" id="background-logo"  >
<rect style="stroke: none; stroke-width: 0; stroke-dasharray: none; stroke-linecap: butt; stroke-dashoffset: 0; stroke-linejoin: miter; stroke-miterlimit: 4; fill: rgb(255,255,255); fill-opacity: 0; fill-rule: nonzero; opacity: 1;"  paint-order="stroke"  x="-640" y="-512" rx="0" ry="0" width="1280" height="1024" />
</g>
<g transform="matrix(4.35095440710706 0 0 4.35095440710706 639.668062200957 511.73444976076564)" id="logo-logo"  >
<g style=""  paint-order="stroke"   >
		<g transform="matrix(0.917930923744532 0 0 0.9179309237445321 0 0)"  >
<g style=""  paint-order="stroke"   >
		<g transform="matrix(1 0 0 1 0 0)"  >
<linearGradient id="SVGID_2_521109" gradientUnits="userSpaceOnUse" gradientTransform="matrix(1 0 0 1 -100 -100)"  x1="0" y1="0" x2="0" y2="200">
<stop offset="0%" style="stop-color:rgb(23,234,217);stop-opacity: 1"/>
<stop offset="100%" style="stop-color:rgb(96,120,234);stop-opacity: 1"/>
</linearGradient>
<polygon style="stroke: none; stroke-width: 1; stroke-dasharray: none; stroke-linecap: butt; stroke-dashoffset: 0; stroke-linejoin: miter; stroke-miterlimit: 4; fill: url(#SVGID_2_521109); fill-rule: nonzero; opacity: 1;"  paint-order="stroke"  points="100,100 0,100 0,95.12 95.12,95.12 95.12,-95.12 -95.12,-95.12 -95.12,0 -100,0 -100,-100 100,-100 100,100 " />
</g>
</g>
</g>
</g>
</g>
<g transform="matrix(1.9211538461538462 0 0 1.9211538461538462 642.2211651216302 524.7934298126617)" id="tagline-3a78d944-c0db-44d4-8ad5-60158c925687-logo"  >
<g style=""  paint-order="stroke"   >
		<g transform="matrix(1 0 0 1 0 0)" id="tagline-3a78d944-c0db-44d4-8ad5-60158c925687-logo-path-0"  >
<linearGradient id="SVGID_521110" gradientUnits="userSpaceOnUse" gradientTransform="matrix(1 0 0 1 13.599999999999994 -95.2)"  x1="-13.633856811523458" y1="-24.363039999999927" x2="-13.633856811523458" y2="129.63696000000007">
<stop offset="0%" style="stop-color:rgb(23,234,217);stop-opacity: 1"/>
<stop offset="100%" style="stop-color:rgb(96,120,234);stop-opacity: 1"/>
</linearGradient>
<path style="stroke: rgb(255,255,255); stroke-width: 0; stroke-dasharray: none; stroke-linecap: butt; stroke-dashoffset: 0; stroke-linejoin: miter; stroke-miterlimit: 4; fill: url(#SVGID_521110); fill-rule: nonzero; opacity: 1;"  paint-order="stroke"  transform=" translate(-78.74499999999999, 46.92)" d="M 73.17 -95.2 L 59.57 -95.2 L 43.38 -36.99 L 27.2 -95.2 L 13.6 -95.2 L 13.6 0 L 23.12 0 L 23.12 -75.62 L 38.49 -20.4 L 48.28 -20.4 L 63.65 -75.62 L 63.65 0 L 73.17 0 Z M 120.77 1.36 C 133.55 1.36 143.89 -2.18 143.89 -20.4 L 143.89 -23.12 C 143.89 -45.02 107.17 -52.22 107.17 -65.28 C 107.17 -77.66 112.47 -80.24 120.77 -80.24 C 129.06 -80.24 134.37 -77.66 134.37 -65.28 L 134.37 -59.84 L 143.89 -59.84 L 143.89 -68 C 143.89 -86.22 133.69 -89.76 120.77 -89.76 C 107.98 -89.76 97.65 -86.22 97.65 -68 L 97.65 -65.28 C 97.65 -45.7 134.37 -38.49 134.37 -23.12 C 134.37 -10.74 129.06 -8.16 120.77 -8.16 C 112.47 -8.16 107.17 -10.74 107.17 -23.12 L 107.17 -30.19 L 97.65 -30.19 L 97.65 -20.4 C 97.65 -2.45 107.85 1.36 120.77 1.36 Z" stroke-linecap="round" />
</g>
</g>
</g>
</svg>